<svg xmlns="http://www.w3.org/2000/svg" viewBox="0 0 900 600">
  <rect width="900" height="600" fill="white"/>

  <!-- Taeguk (red/blue) -->
  <g transform="translate(450,300)">
    <circle r="120" fill="#C60C30"/>
    <path d="M-120,0 A120,120 0 0,0 120,0 Z" fill="#003478"/>
    <circle cy="-60" r="60" fill="#003478"/>
    <circle cy="60"  r="60" fill="#C60C30"/>
  </g>

  <!-- Geon (건) ☰  top-left — 3 bare pline, rotit -45° -->
  <g transform="translate(214,148) rotate(-45)">
    <rect x="-58" y="-28" width="116" height="14" fill="#000"/>
    <rect x="-58" y="-7"  width="116" height="14" fill="#000"/>
    <rect x="-58" y="14"  width="116" height="14" fill="#000"/>
  </g>

  <!-- Ri (리) ☲  top-right — broken/solid/broken, rotit 45° -->
  <g transform="translate(686,148) rotate(45)">
    <rect x="-58" y="-28" width="50"  height="14" fill="#000"/>
    <rect x="8"   y="-28" width="50"  height="14" fill="#000"/>
    <rect x="-58" y="-7"  width="116" height="14" fill="#000"/>
    <rect x="-58" y="14"  width="50"  height="14" fill="#000"/>
    <rect x="8"   y="14"  width="50"  height="14" fill="#000"/>
  </g>

  <!-- Gam (감) ☵  bottom-left — solid/broken/solid, rotit 45° -->
  <g transform="translate(214,452) rotate(45)">
    <rect x="-58" y="-28" width="116" height="14" fill="#000"/>
    <rect x="-58" y="-7"  width="50"  height="14" fill="#000"/>
    <rect x="8"   y="-7"  width="50"  height="14" fill="#000"/>
    <rect x="-58" y="14"  width="116" height="14" fill="#000"/>
  </g>

  <!-- Gon (곤) ☷  bottom-right — 3 bare rupte, rotit -45° -->
  <g transform="translate(686,452) rotate(-45)">
    <rect x="-58" y="-28" width="50"  height="14" fill="#000"/>
    <rect x="8"   y="-28" width="50"  height="14" fill="#000"/>
    <rect x="-58" y="-7"  width="50"  height="14" fill="#000"/>
    <rect x="8"   y="-7"  width="50"  height="14" fill="#000"/>
    <rect x="-58" y="14"  width="50"  height="14" fill="#000"/>
    <rect x="8"   y="14"  width="50"  height="14" fill="#000"/>
  </g>
</svg>
