<svg xmlns="http://www.w3.org/2000/svg" viewBox="0 0 900 600">
  <rect width="900" height="600" fill="white"/>

  <!-- TAEGUK: albastru (yin) jos, rosu (yang) sus, cu curba S corecta -->
  <g transform="translate(450,300)">
    <!-- baza albastra (yin) -->
    <circle r="150" fill="#003478"/>
    <!-- zona rosie (yang): jumatatea de sus + curba S
         M-150,0 → arc CW r75 → (0,0) [umflatura sus stanga]
                 → arc CCW r75 → (150,0) [umflatura jos dreapta]
                 → arc CCW r150 → inapoi [-150,0] [semicercul mare de sus] -->
    <path fill="#CD2E3A"
      d="M-150,0
         A75,75 0 0,1 0,0
         A75,75 0 0,0 150,0
         A150,150 0 0,0 -150,0
         Z"/>
  </g>

  <!-- GEON (건) ☰  stanga-sus: 3 bare pline -->
  <g transform="translate(214,148) rotate(-45)">
    <rect x="-66" y="-24" width="132" height="16" fill="#000"/>
    <rect x="-66" y="-4"  width="132" height="16" fill="#000"/>
    <rect x="-66" y="16"  width="132" height="16" fill="#000"/>
  </g>

  <!-- RI (리) ☲  dreapta-sus: plin / spart / plin -->
  <g transform="translate(686,148) rotate(45)">
    <rect x="-66" y="-24" width="132" height="16" fill="#000"/>
    <rect x="-66" y="-4"  width="58"  height="16" fill="#000"/>
    <rect x="8"   y="-4"  width="58"  height="16" fill="#000"/>
    <rect x="-66" y="16"  width="132" height="16" fill="#000"/>
  </g>

  <!-- GAM (감) ☵  stanga-jos: spart / plin / spart -->
  <g transform="translate(214,452) rotate(45)">
    <rect x="-66" y="-24" width="58"  height="16" fill="#000"/>
    <rect x="8"   y="-24" width="58"  height="16" fill="#000"/>
    <rect x="-66" y="-4"  width="132" height="16" fill="#000"/>
    <rect x="-66" y="16"  width="58"  height="16" fill="#000"/>
    <rect x="8"   y="16"  width="58"  height="16" fill="#000"/>
  </g>

  <!-- GON (곤) ☷  dreapta-jos: 3 bare sparte -->
  <g transform="translate(686,452) rotate(-45)">
    <rect x="-66" y="-24" width="58"  height="16" fill="#000"/>
    <rect x="8"   y="-24" width="58"  height="16" fill="#000"/>
    <rect x="-66" y="-4"  width="58"  height="16" fill="#000"/>
    <rect x="8"   y="-4"  width="58"  height="16" fill="#000"/>
    <rect x="-66" y="16"  width="58"  height="16" fill="#000"/>
    <rect x="8"   y="16"  width="58"  height="16" fill="#000"/>
  </g>
</svg>
