<svg xmlns="http://www.w3.org/2000/svg" viewBox="0 0 900 600">
  <rect width="900" height="600" fill="white"/>

  <!-- Taeguk: rosu (yang) sus, albastru (yin) jos -->
  <g transform="translate(450,300)">
    <!-- cerc complet rosu -->
    <circle r="150" fill="#CD2E3A"/>
    <!-- jumatate de jos albastra (sweep=1 = clockwise = jos) -->
    <path d="M-150,0 A150,150 0 0,1 150,0 Z" fill="#003478"/>
    <!-- balon albastru sus (yin in yang) -->
    <circle cy="-75" r="75" fill="#003478"/>
    <!-- balon rosu jos (yang in yin) -->
    <circle cy="75" r="75" fill="#CD2E3A"/>
  </g>

  <!-- Geon (건) ☰  stanga-sus — 3 bare pline, rotate -45° -->
  <g transform="translate(214,148) rotate(-45)">
    <rect x="-66" y="-24" width="132" height="16" fill="#000"/>
    <rect x="-66" y="-4"  width="132" height="16" fill="#000"/>
    <rect x="-66" y="16"  width="132" height="16" fill="#000"/>
  </g>

  <!-- Ri (리) ☲  dreapta-sus — plin / spart / plin, rotate 45° -->
  <g transform="translate(686,148) rotate(45)">
    <rect x="-66" y="-24" width="132" height="16" fill="#000"/>
    <rect x="-66" y="-4"  width="58"  height="16" fill="#000"/>
    <rect x="8"   y="-4"  width="58"  height="16" fill="#000"/>
    <rect x="-66" y="16"  width="132" height="16" fill="#000"/>
  </g>

  <!-- Gam (감) ☵  stanga-jos — spart / plin / spart, rotate 45° -->
  <g transform="translate(214,452) rotate(45)">
    <rect x="-66" y="-24" width="58"  height="16" fill="#000"/>
    <rect x="8"   y="-24" width="58"  height="16" fill="#000"/>
    <rect x="-66" y="-4"  width="132" height="16" fill="#000"/>
    <rect x="-66" y="16"  width="58"  height="16" fill="#000"/>
    <rect x="8"   y="16"  width="58"  height="16" fill="#000"/>
  </g>

  <!-- Gon (곤) ☷  dreapta-jos — 3 bare sparte, rotate -45° -->
  <g transform="translate(686,452) rotate(-45)">
    <rect x="-66" y="-24" width="58"  height="16" fill="#000"/>
    <rect x="8"   y="-24" width="58"  height="16" fill="#000"/>
    <rect x="-66" y="-4"  width="58"  height="16" fill="#000"/>
    <rect x="8"   y="-4"  width="58"  height="16" fill="#000"/>
    <rect x="-66" y="16"  width="58"  height="16" fill="#000"/>
    <rect x="8"   y="16"  width="58"  height="16" fill="#000"/>
  </g>
</svg>
